<?xml version="1.0" standalone="no"?><!DOCTYPE svg PUBLIC "-//W3C//DTD SVG 1.1//EN" "http://www.w3.org/Graphics/SVG/1.1/DTD/svg11.dtd"><svg t="1591012289964" class="icon" viewBox="0 0 1024 1024" version="1.1" xmlns="http://www.w3.org/2000/svg" p-id="2644" xmlns:xlink="http://www.w3.org/1999/xlink" width="64" height="64"><defs><style type="text/css"></style></defs><path d="M64 448h896v448a128 128 0 0 1-128 128H192A128 128 0 0 1 64 896V448z" fill="#EC5942" p-id="2645"></path><path d="M510.848 279.424L522.112 320H480c-230.72 0-352-41.472-352-141.44C128 58.176 181.568 0 284.16 0c81.28 0 137.6 58.176 179.008 144.576 16.256 34.048 32.128 78.912 47.68 134.848zM405.44 172.16C373.76 105.984 333.056 64 284.16 64 218.112 64 192 92.352 192 178.56c0 42.496 78.528 72.576 245.056 76.928a645.76 645.76 0 0 0-31.616-83.328z" fill="#FFB400" p-id="2646"></path><path d="M510.848 279.424L522.112 320H480c-230.72 0-352-41.472-352-141.44C128 58.176 181.568 0 284.16 0c81.28 0 137.6 58.176 179.008 144.576 16.256 34.048 32.128 78.912 47.68 134.848z m-105.408-79.36C373.76 155.84 333.056 128 284.16 128c-66.048 0-92.16 18.88-92.16 76.288 0 28.288 78.528 48.256 245.056 51.2A357.76 357.76 0 0 0 405.44 200z" fill="#FED546" p-id="2647"></path><path d="M523.264 279.424L512 320h42.112c230.72 0 352-41.472 352-141.44C906.112 58.112 852.544 0 749.952 0c-81.28 0-137.6 58.176-179.008 144.576-16.256 34.048-32.128 78.912-47.68 134.848z m105.408-79.36C660.352 155.84 701.056 128 749.952 128c66.048 0 92.16 18.88 92.16 76.288 0 28.288-78.528 48.256-245.056 51.2 10.624-22.4 21.12-40.96 31.616-55.488z" fill="#FED546" p-id="2648"></path><path d="M128 256h768q128 0 128 128T896 512H128Q0 512 0 384t128-128z" fill="#FF634A" p-id="2649"></path><path d="M384 512h256v512H384z" fill="#FFB81E" p-id="2650"></path><path d="M384 256c19.072-49.216 61.76-73.792 128-73.792 66.24 0 108.928 24.576 128 73.792v256H384V256z" fill="#FED546" p-id="2651"></path></svg>