<?xml version="1.0" standalone="no"?><!DOCTYPE svg PUBLIC "-//W3C//DTD SVG 1.1//EN" "http://www.w3.org/Graphics/SVG/1.1/DTD/svg11.dtd"><svg t="1591105858372" class="icon" viewBox="0 0 1024 1024" version="1.1" xmlns="http://www.w3.org/2000/svg" p-id="2764" xmlns:xlink="http://www.w3.org/1999/xlink" width="64" height="64"><defs><style type="text/css"></style></defs><path d="M510.104 61.036c-247.291 0-447.678 200.88-447.678 448.653 0 247.762 200.387 448.67 447.678 448.67 247.117 0 447.622-200.908 447.622-448.67 0-247.773-200.505-448.653-447.622-448.653z m115.05 622.398c-23.57 17.419-52.039 30.555-85.841 33.235v55.302H480.26v-56.177c-36.128-4.25-62.159-15.014-84.064-32.641-29.025-23.205-37.939-47.986-43.602-79.063l88.947-21.787c0 29.294 30.191 62.798 75.183 62.798 26.827 0 58.846-13.136 58.498-48.132-0.207-28.632-30.432-49.118-63.028-56.497-33.841-7.614-102.105-30.914-121.01-51.703-19.017-20.694-24.27-50.083-24.27-84.249 0-29.378 13.08-59.053 34.261-76.983 20.626-17.464 44.79-28.688 79.085-32.899v-47.184h59.053v46.999c32.428 3.538 59.143 13.741 79.679 31.256 25.476 22.005 38.461 50.133 38.461 67.07L568.596 413.7c0-21.966-32.888-49.068-55.258-49.068-29.008 0-51.966 8.191-51.966 44.572 0 26.154 19.813 34.693 54.203 45.738 57.775 18.468 101.64 42.452 121.807 63.219 20.071 20.851 30.062 47.089 30.062 78.81 0 39.206-14.56 65.663-42.29 86.463z" fill="#F5B93A" p-id="2765"></path></svg>