<svg id="图层_1" data-name="图层 1" xmlns="http://www.w3.org/2000/svg" viewBox="0 0 31.02 31.02"><defs><style>.cls-1{fill:#009fe9;}.cls-2{fill:#fff;}</style></defs><path class="cls-1" d="M0,32,31,1H0Z" transform="translate(0 -0.98)"/><path class="cls-2" d="M5.28,13.06,6.7,11.69c.26-.25.59-.59,1-1l.46.47c-.43.38-.78.7-1.06,1L5.6,13.56l.32.44,1.84-1.77c.43.48.79.88,1.1,1.2l1.72,1.77c.44-.42.82-.81,1.14-1.15l.4.41c-.43.38-.81.74-1.17,1.08L7,19.41c-.38.36-.74.73-1.09,1.1l-.4-.41L6.65,19,4.93,17.22c-.3-.32-.69-.7-1.15-1.15l1.61-1.56-.32-.44L3.59,15.49l-1,1-.45-.47q.59-.51,1.08-1L4.72,13.6a5.07,5.07,0,0,0-.37-.44,5.14,5.14,0,0,0,.72-.59C5.14,12.75,5.21,12.91,5.28,13.06Zm4.85,2.58-.35-.36-3,2.92.35.37Zm-.72-.76-.27-.27-3,2.93.27.27Zm-.68-.69-.35-.36-3,2.93.35.36ZM8,13.47l-.38-.39L4.63,16l.37.39ZM6.54,9.75c.19.19.39.38.59.55l-5.2,5c-.2-.24-.38-.46-.56-.64S.94,14.26.67,14l5.2-5c.23.27.46.52.67.75ZM3.19,13.41l-.56-.59-1.06,1,.57.58ZM4.7,12l-.57-.59L3,12.45l.56.58Zm1.53-1.48L5.66,9.9l-1.08,1,.56.59ZM7.39,8.06c.24-.19.47-.4.7-.61l.8-.78c.23-.22.45-.45.67-.7l.46.47c-.31.27-.57.49-.75.67l4.06,4.2c.36.38.45.71.29,1s-.36.63-.6,1a2.88,2.88,0,0,0-.87-.45,6.25,6.25,0,0,0,.61-.65q.2-.24-.15-.6l-3.87-4c-.37.36-.67.67-.89.92Zm7.05,3.58A5.78,5.78,0,0,0,15.25,10a1.79,1.79,0,0,0-.06-1.26,5.49,5.49,0,0,0-.76-1.14,14.2,14.2,0,0,0-1.13-1.2q.39-.27.72-.54a5.75,5.75,0,0,0,.71,1,11,11,0,0,1,1,1.28,2.38,2.38,0,0,1,.37,1.66,6.19,6.19,0,0,1-.66,2.09,2.22,2.22,0,0,0-1-.2ZM12.25,5.58c-.27-.35-.53-.69-.8-1l-.53.51c-.23.21-.52.52-.89.91l-.46-.47c.39-.34.7-.63.95-.86l2-2c.31-.31.62-.62.92-.94l.45.47c-.33.29-.66.58-1,.89L12,4c.23.35.48.71.75,1.06l1.64-1.59c.25.3.75.84,1.5,1.61s1.29,1.32,1.62,1.62L17,7.25,14.27,4.44,12,6.61l2.77,2.87-.53.51c-.29-.33-.8-.89-1.56-1.67S11.39,7,11.08,6.71Zm5.38,2c.51-.06,1-.12,1.51-.16a6,6,0,0,0,0,1,12.33,12.33,0,0,0-1.54,0c-.4,0-.8.1-1.22.18a4.8,4.8,0,0,0,0-.85c.29,0,.69-.07,1.2-.14Z" transform="translate(0 -0.98)"/></svg>